<svg version="1.1" viewBox="0 0 56 56" xmlns="http://www.w3.org/2000/svg">
 <path d="m28.01 15.17c6.44 0 11.67 5.227 11.67 11.67 0 1.517-0.3033 2.94-0.84 4.27l6.813 6.813c3.523-2.94 6.3-6.743 8.003-11.08-4.037-10.24-14-17.5-25.67-17.5-3.267 0-6.393 0.5833-9.287 1.633l5.04 5.04c1.33-0.5367 2.753-0.84 4.27-0.84zm-23.33-6.37 6.393 6.393c-3.873 3.01-6.907 7.023-8.727 11.64 4.037 10.24 14 17.5 25.67 17.5 3.617 0 7.07-0.7 10.22-1.96l0.98 0.98 6.837 6.813 2.963-2.963-41.37-41.37zm12.9 12.9 3.617 3.617c-0.1167 0.49-0.1867 1.003-0.1867 1.517 0 3.873 3.127 7 7 7 0.5133 0 1.027-0.07 1.517-0.1867l3.617 3.617c-1.563 0.77-3.29 1.237-5.133 1.237-6.44 0-11.67-5.227-11.67-11.67 0-1.843 0.4667-3.57 1.237-5.133zm10.06-1.82 7.35 7.35 0.04667-0.3733c0-3.873-3.127-7-7-7z" fill-rule="evenodd"/>
</svg>
